<?xml version="1.0" standalone="no"?>
<!DOCTYPE svg PUBLIC "-//W3C//DTD SVG 20010904//EN"
 "http://www.w3.org/TR/2001/REC-SVG-20010904/DTD/svg10.dtd">
<svg version="1.0" xmlns="http://www.w3.org/2000/svg"
 width="108.000000pt" height="134.000000pt" viewBox="0 0 108.000000 134.000000"
 preserveAspectRatio="xMidYMid meet">
<metadata>
Created by potrace 1.16, written by Peter Selinger 2001-2019
</metadata>
<g transform="translate(0.000000,134.000000) scale(0.100000,-0.100000)"
fill="#000000" stroke="none">
<path d="M402 1237 c-22 -23 -22 -28 -22 -380 0 -204 -4 -358 -9 -361 -5 -4
-49 47 -97 111 -49 65 -93 121 -99 125 -20 15 -65 8 -85 -14 -25 -27 -26 -64
-2 -99 47 -73 229 -319 241 -329 4 -3 15 -18 25 -35 64 -104 189 -165 340
-165 88 0 136 15 186 58 52 44 67 74 90 180 16 72 20 128 20 320 l0 233 -25
24 c-29 30 -45 31 -78 5 -25 -20 -26 -25 -29 -138 -4 -161 -22 -153 -26 11 -3
145 -14 177 -62 177 -51 0 -59 -22 -62 -170 -4 -189 -22 -172 -26 24 -2 154
-3 155 -29 175 -32 26 -54 26 -82 4 -19 -17 -21 -29 -23 -178 -2 -98 -7 -160
-13 -160 -6 0 -11 102 -13 280 -2 270 -3 280 -24 302 -28 30 -68 29 -96 0z"/>
</g>
</svg>
