<!-- Generated by IcoMoon.io -->
<svg version="1.1" xmlns="http://www.w3.org/2000/svg" width="16" height="18" viewBox="0 0 26 32">
<title>a-icon-pointer</title>
<path fill="#5C5C5C" d="M9.6 2.46c-0.525 0.549-0.525 0.669-0.525 9.075 0 4.872-0.096 8.549-0.215 8.621-0.119 0.096-1.17-1.122-2.316-2.651-1.17-1.552-2.221-2.89-2.364-2.985-0.478-0.358-1.552-0.191-2.030 0.334-0.597 0.645-0.621 1.528-0.048 2.364 1.122 1.743 5.469 7.618 5.755 7.857 0.096 0.072 0.358 0.43 0.597 0.836 1.528 2.484 4.513 3.94 8.119 3.94 2.102 0 3.248-0.358 4.442-1.385 1.242-1.051 1.6-1.767 2.149-4.299 0.382-1.719 0.478-3.057 0.478-7.642v-5.564l-0.597-0.573c-0.693-0.716-1.075-0.74-1.863-0.119-0.597 0.478-0.621 0.597-0.693 3.296-0.096 3.845-0.525 3.654-0.621-0.263-0.072-3.463-0.334-4.227-1.481-4.227-1.218 0-1.409 0.525-1.481 4.060-0.096 4.513-0.525 4.107-0.621-0.573-0.048-3.678-0.072-3.701-0.693-4.179-0.764-0.621-1.29-0.621-1.958-0.096-0.454 0.406-0.502 0.693-0.549 4.251-0.048 2.34-0.167 3.821-0.31 3.821s-0.263-2.436-0.31-6.687c-0.048-6.448-0.072-6.687-0.573-7.212-0.669-0.716-1.624-0.693-2.293 0z"></path>
</svg>

